<mxfile host="app.diagrams.net" modified="2024-02-14T18:00:56.731Z" agent="Mozilla/5.0 (Windows NT 10.0; Win64; x64) AppleWebKit/537.36 (KHTML, like Gecko) Chrome/121.0.0.0 Safari/537.36" etag="g9zBBxkuEF2_Tt1i9Six" version="23.1.4" type="github">
  <diagram id="yPxyJZ8AM_hMuL3Unpa9" name="gitflow">
    <mxGraphModel dx="1050" dy="653" grid="1" gridSize="10" guides="1" tooltips="1" connect="1" arrows="1" fold="1" page="1" pageScale="1" pageWidth="850" pageHeight="1100" math="0" shadow="0">
      <root>
        <mxCell id="0" />
        <mxCell id="1" parent="0" />
        <mxCell id="3" value="" style="endArrow=none;dashed=1;html=1;fillColor=#dae8fc;strokeColor=#6c8ebf;" parent="1" source="UCdTi1GnOte8o6L_Yfmx-185" target="7" edge="1">
          <mxGeometry width="50" height="50" relative="1" as="geometry">
            <mxPoint x="750" y="180" as="sourcePoint" />
            <mxPoint x="730" y="180" as="targetPoint" />
          </mxGeometry>
        </mxCell>
        <mxCell id="22" style="edgeStyle=orthogonalEdgeStyle;rounded=1;orthogonalLoop=1;jettySize=auto;html=1;dashed=1;endArrow=none;endFill=0;fillColor=#d5e8d4;strokeColor=#82b366;" parent="1" source="4" target="21" edge="1">
          <mxGeometry relative="1" as="geometry">
            <Array as="points">
              <mxPoint x="50" y="240" />
            </Array>
          </mxGeometry>
        </mxCell>
        <mxCell id="4" value="" style="ellipse;whiteSpace=wrap;html=1;aspect=fixed;fillColor=#dae8fc;strokeColor=#6c8ebf;fontStyle=1;labelPosition=center;verticalLabelPosition=top;align=center;verticalAlign=bottom;fontColor=#0066CC;" parent="1" vertex="1">
          <mxGeometry x="40" y="170" width="20" height="20" as="geometry" />
        </mxCell>
        <mxCell id="7" value="Master" style="text;html=1;strokeColor=#6c8ebf;fillColor=#dae8fc;align=center;verticalAlign=middle;whiteSpace=wrap;rounded=0;" parent="1" vertex="1">
          <mxGeometry x="830" y="170" width="90" height="20" as="geometry" />
        </mxCell>
        <mxCell id="73" style="edgeStyle=orthogonalEdgeStyle;rounded=1;orthogonalLoop=1;jettySize=auto;html=1;dashed=1;endArrow=none;endFill=0;fontSize=10;fontColor=#FFB570;fillColor=#e1d5e7;strokeColor=#9673a6;" parent="1" source="21" target="51" edge="1">
          <mxGeometry relative="1" as="geometry">
            <Array as="points">
              <mxPoint x="120" y="250" />
            </Array>
          </mxGeometry>
        </mxCell>
        <mxCell id="21" value="" style="ellipse;whiteSpace=wrap;html=1;aspect=fixed;fillColor=#d5e8d4;strokeColor=#82b366;" parent="1" vertex="1">
          <mxGeometry x="110" y="230" width="20" height="20" as="geometry" />
        </mxCell>
        <mxCell id="24" value="Dev" style="text;html=1;strokeColor=#82b366;fillColor=#d5e8d4;align=center;verticalAlign=middle;whiteSpace=wrap;rounded=0;" parent="1" vertex="1">
          <mxGeometry x="830" y="230" width="90" height="20" as="geometry" />
        </mxCell>
        <mxCell id="25" value="" style="ellipse;whiteSpace=wrap;html=1;aspect=fixed;fillColor=#d5e8d4;strokeColor=#82b366;" parent="1" vertex="1">
          <mxGeometry x="196.97000000000003" y="230" width="20" height="20" as="geometry" />
        </mxCell>
        <mxCell id="26" style="edgeStyle=orthogonalEdgeStyle;rounded=1;orthogonalLoop=1;jettySize=auto;html=1;dashed=1;endArrow=none;endFill=0;fillColor=#d5e8d4;strokeColor=#82b366;" parent="1" source="21" target="25" edge="1">
          <mxGeometry relative="1" as="geometry">
            <mxPoint x="710" y="240" as="targetPoint" />
            <mxPoint x="140" y="240" as="sourcePoint" />
          </mxGeometry>
        </mxCell>
        <mxCell id="35" value="" style="endArrow=none;dashed=1;html=1;fillColor=#dae8fc;strokeColor=#6c8ebf;entryX=0;entryY=0.5;entryDx=0;entryDy=0;" parent="1" source="4" target="UCdTi1GnOte8o6L_Yfmx-185" edge="1">
          <mxGeometry width="50" height="50" relative="1" as="geometry">
            <mxPoint x="59.9999999999917" y="180" as="sourcePoint" />
            <mxPoint x="700" y="180" as="targetPoint" />
            <Array as="points" />
          </mxGeometry>
        </mxCell>
        <mxCell id="74" style="edgeStyle=orthogonalEdgeStyle;rounded=1;orthogonalLoop=1;jettySize=auto;html=1;dashed=1;endArrow=none;endFill=0;fontSize=10;fontColor=#FFB570;fillColor=#e1d5e7;strokeColor=#9673a6;" parent="1" source="51" target="52" edge="1">
          <mxGeometry relative="1" as="geometry" />
        </mxCell>
        <mxCell id="52" value="" style="ellipse;whiteSpace=wrap;html=1;aspect=fixed;fontSize=10;fillColor=#e1d5e7;strokeColor=#9673a6;" parent="1" vertex="1">
          <mxGeometry x="250.00000000000003" y="270" width="20" height="20" as="geometry" />
        </mxCell>
        <mxCell id="85" value="feature branch 1" style="text;html=1;strokeColor=#9673a6;fillColor=#e1d5e7;align=center;verticalAlign=middle;whiteSpace=wrap;rounded=0;" parent="1" vertex="1">
          <mxGeometry x="830" y="270" width="90" height="20" as="geometry" />
        </mxCell>
        <mxCell id="167" style="edgeStyle=orthogonalEdgeStyle;rounded=1;orthogonalLoop=1;jettySize=auto;html=1;dashed=1;endArrow=none;endFill=0;fontSize=12;fontColor=#FFB570;fillColor=#e1d5e7;strokeColor=#9673a6;exitX=1;exitY=0.5;exitDx=0;exitDy=0;" parent="1" source="UCdTi1GnOte8o6L_Yfmx-217" target="85" edge="1">
          <mxGeometry relative="1" as="geometry">
            <mxPoint x="725" y="320" as="sourcePoint" />
          </mxGeometry>
        </mxCell>
        <mxCell id="51" value="" style="ellipse;whiteSpace=wrap;html=1;aspect=fixed;fontSize=10;fillColor=#e1d5e7;strokeColor=#9673a6;" parent="1" vertex="1">
          <mxGeometry x="160" y="270" width="20" height="20" as="geometry" />
        </mxCell>
        <mxCell id="UCdTi1GnOte8o6L_Yfmx-180" value="" style="ellipse;whiteSpace=wrap;html=1;aspect=fixed;fillColor=#f8cecc;strokeColor=#b85450;" parent="1" vertex="1">
          <mxGeometry x="100" y="130" width="20" height="20" as="geometry" />
        </mxCell>
        <mxCell id="UCdTi1GnOte8o6L_Yfmx-185" value="" style="ellipse;whiteSpace=wrap;html=1;aspect=fixed;fillColor=#dae8fc;strokeColor=#6c8ebf;fontStyle=1;labelPosition=center;verticalLabelPosition=top;align=center;verticalAlign=bottom;fontColor=#0066CC;" parent="1" vertex="1">
          <mxGeometry x="160" y="170" width="20" height="20" as="geometry" />
        </mxCell>
        <mxCell id="UCdTi1GnOte8o6L_Yfmx-197" value="" style="endArrow=none;dashed=1;html=1;rounded=0;entryX=0;entryY=0.5;entryDx=0;entryDy=0;exitX=1;exitY=0.5;exitDx=0;exitDy=0;" parent="1" source="25" target="UCdTi1GnOte8o6L_Yfmx-196" edge="1">
          <mxGeometry width="50" height="50" relative="1" as="geometry">
            <mxPoint x="230" y="240" as="sourcePoint" />
            <mxPoint x="330" y="240" as="targetPoint" />
          </mxGeometry>
        </mxCell>
        <mxCell id="UCdTi1GnOte8o6L_Yfmx-198" value="" style="endArrow=none;dashed=1;html=1;rounded=1;exitX=0.5;exitY=1;exitDx=0;exitDy=0;edgeStyle=orthogonalEdgeStyle;elbow=vertical;curved=0;fillColor=#d5e8d4;strokeColor=#82b366;startArrow=blockThin;startFill=1;entryX=1;entryY=0.5;entryDx=0;entryDy=0;" parent="1" edge="1">
          <mxGeometry width="50" height="50" relative="1" as="geometry">
            <mxPoint x="470.04" y="250" as="sourcePoint" />
            <mxPoint x="350.00194698091747" y="279.12844257252345" as="targetPoint" />
            <Array as="points">
              <mxPoint x="470" y="279" />
            </Array>
          </mxGeometry>
        </mxCell>
        <mxCell id="UCdTi1GnOte8o6L_Yfmx-203" value="" style="endArrow=none;dashed=1;html=1;rounded=0;elbow=vertical;" parent="1" source="UCdTi1GnOte8o6L_Yfmx-196" target="24" edge="1">
          <mxGeometry width="50" height="50" relative="1" as="geometry">
            <mxPoint x="380" y="240" as="sourcePoint" />
            <mxPoint x="430" y="190" as="targetPoint" />
          </mxGeometry>
        </mxCell>
        <mxCell id="UCdTi1GnOte8o6L_Yfmx-204" value="BugFix" style="whiteSpace=wrap;html=1;rounded=1;arcSize=50;align=center;verticalAlign=middle;strokeWidth=1;autosize=1;spacing=4;treeFolding=1;treeMoving=1;newEdgeStyle={&quot;edgeStyle&quot;:&quot;entityRelationEdgeStyle&quot;,&quot;startArrow&quot;:&quot;none&quot;,&quot;endArrow&quot;:&quot;none&quot;,&quot;segment&quot;:10,&quot;curved&quot;:1,&quot;sourcePerimeterSpacing&quot;:0,&quot;targetPerimeterSpacing&quot;:0};fillColor=#f8cecc;strokeColor=#b85450;" parent="1" vertex="1">
          <mxGeometry x="136.97" y="60" width="80" height="30" as="geometry" />
        </mxCell>
        <mxCell id="UCdTi1GnOte8o6L_Yfmx-205" value="" style="edgeStyle=elbowEdgeStyle;startArrow=none;endArrow=none;segment=10;sourcePerimeterSpacing=0;targetPerimeterSpacing=0;rounded=0;dashed=1;dashPattern=1 2;elbow=vertical;" parent="1" target="UCdTi1GnOte8o6L_Yfmx-204" edge="1">
          <mxGeometry relative="1" as="geometry">
            <mxPoint x="110" y="130" as="sourcePoint" />
          </mxGeometry>
        </mxCell>
        <mxCell id="UCdTi1GnOte8o6L_Yfmx-207" value="Auto-test,. Regression" style="whiteSpace=wrap;html=1;rounded=1;arcSize=50;align=center;verticalAlign=middle;strokeWidth=1;autosize=1;spacing=4;treeFolding=1;treeMoving=1;newEdgeStyle={&quot;edgeStyle&quot;:&quot;entityRelationEdgeStyle&quot;,&quot;startArrow&quot;:&quot;none&quot;,&quot;endArrow&quot;:&quot;none&quot;,&quot;segment&quot;:10,&quot;curved&quot;:1,&quot;sourcePerimeterSpacing&quot;:0,&quot;targetPerimeterSpacing&quot;:0};fillColor=#fff2cc;strokeColor=#d6b656;" parent="1" vertex="1">
          <mxGeometry x="230" y="190" width="160" height="30" as="geometry" />
        </mxCell>
        <mxCell id="UCdTi1GnOte8o6L_Yfmx-208" value="" style="edgeStyle=entityRelationEdgeStyle;startArrow=none;endArrow=none;segment=10;curved=1;sourcePerimeterSpacing=0;targetPerimeterSpacing=0;rounded=0;elbow=vertical;dashed=1;dashPattern=1 2;" parent="1" target="UCdTi1GnOte8o6L_Yfmx-207" edge="1">
          <mxGeometry relative="1" as="geometry">
            <mxPoint x="210" y="240" as="sourcePoint" />
          </mxGeometry>
        </mxCell>
        <mxCell id="UCdTi1GnOte8o6L_Yfmx-209" value="Auto-test, Regression" style="whiteSpace=wrap;html=1;rounded=1;arcSize=50;align=center;verticalAlign=middle;strokeWidth=1;autosize=1;spacing=4;treeFolding=1;treeMoving=1;newEdgeStyle={&quot;edgeStyle&quot;:&quot;entityRelationEdgeStyle&quot;,&quot;startArrow&quot;:&quot;none&quot;,&quot;endArrow&quot;:&quot;none&quot;,&quot;segment&quot;:10,&quot;curved&quot;:1,&quot;sourcePerimeterSpacing&quot;:0,&quot;targetPerimeterSpacing&quot;:0};fillColor=#fff2cc;strokeColor=#d6b656;" parent="1" vertex="1">
          <mxGeometry x="180" y="330" width="160" height="30" as="geometry" />
        </mxCell>
        <mxCell id="UCdTi1GnOte8o6L_Yfmx-210" value="" style="startArrow=none;endArrow=none;segment=10;sourcePerimeterSpacing=0;targetPerimeterSpacing=0;rounded=1;elbow=vertical;dashed=1;dashPattern=1 2;" parent="1" target="UCdTi1GnOte8o6L_Yfmx-209" edge="1">
          <mxGeometry relative="1" as="geometry">
            <mxPoint x="260" y="290" as="sourcePoint" />
          </mxGeometry>
        </mxCell>
        <mxCell id="UCdTi1GnOte8o6L_Yfmx-213" value="" style="endArrow=none;dashed=1;html=1;rounded=1;elbow=vertical;entryX=0;entryY=0.5;entryDx=0;entryDy=0;edgeStyle=orthogonalEdgeStyle;curved=0;fillColor=#f8cecc;strokeColor=#b85450;" parent="1" target="UCdTi1GnOte8o6L_Yfmx-180" edge="1">
          <mxGeometry width="50" height="50" relative="1" as="geometry">
            <mxPoint x="50" y="170" as="sourcePoint" />
            <mxPoint x="100" y="120" as="targetPoint" />
            <Array as="points">
              <mxPoint x="50" y="140" />
            </Array>
          </mxGeometry>
        </mxCell>
        <mxCell id="UCdTi1GnOte8o6L_Yfmx-214" value="" style="endArrow=none;dashed=1;html=1;rounded=1;elbow=vertical;entryX=1;entryY=0.5;entryDx=0;entryDy=0;exitX=0.5;exitY=0;exitDx=0;exitDy=0;edgeStyle=orthogonalEdgeStyle;curved=0;fillColor=#f8cecc;strokeColor=#b85450;startArrow=blockThin;startFill=1;" parent="1" source="UCdTi1GnOte8o6L_Yfmx-185" target="UCdTi1GnOte8o6L_Yfmx-180" edge="1">
          <mxGeometry width="50" height="50" relative="1" as="geometry">
            <mxPoint x="190" y="140" as="sourcePoint" />
            <mxPoint x="240" y="170" as="targetPoint" />
          </mxGeometry>
        </mxCell>
        <mxCell id="UCdTi1GnOte8o6L_Yfmx-215" value="" style="endArrow=none;dashed=1;html=1;rounded=1;elbow=vertical;startArrow=blockThin;startFill=1;exitX=0.5;exitY=0;exitDx=0;exitDy=0;entryX=1;entryY=0.5;entryDx=0;entryDy=0;edgeStyle=orthogonalEdgeStyle;curved=0;fillColor=#d5e8d4;strokeColor=#82b366;" parent="1" source="25" target="UCdTi1GnOte8o6L_Yfmx-185" edge="1">
          <mxGeometry width="50" height="50" relative="1" as="geometry">
            <mxPoint x="170" y="240" as="sourcePoint" />
            <mxPoint x="180" y="190" as="targetPoint" />
          </mxGeometry>
        </mxCell>
        <mxCell id="UCdTi1GnOte8o6L_Yfmx-216" value="" style="endArrow=none;dashed=1;html=1;rounded=1;elbow=vertical;edgeStyle=orthogonalEdgeStyle;curved=0;startArrow=blockThin;startFill=1;fillColor=#e1d5e7;strokeColor=#9673a6;" parent="1" edge="1">
          <mxGeometry width="50" height="50" relative="1" as="geometry">
            <mxPoint x="260" y="270" as="sourcePoint" />
            <mxPoint x="220" y="240" as="targetPoint" />
            <Array as="points">
              <mxPoint x="260" y="240" />
            </Array>
          </mxGeometry>
        </mxCell>
        <mxCell id="UCdTi1GnOte8o6L_Yfmx-217" value="" style="ellipse;whiteSpace=wrap;html=1;aspect=fixed;fontSize=10;fillColor=#e1d5e7;strokeColor=#9673a6;rotation=-5;" parent="1" vertex="1">
          <mxGeometry x="330" y="270" width="20" height="20" as="geometry" />
        </mxCell>
        <mxCell id="UCdTi1GnOte8o6L_Yfmx-218" value="" style="endArrow=none;dashed=1;html=1;rounded=0;elbow=vertical;" parent="1" target="UCdTi1GnOte8o6L_Yfmx-196" edge="1">
          <mxGeometry width="50" height="50" relative="1" as="geometry">
            <mxPoint x="380" y="240" as="sourcePoint" />
            <mxPoint x="830" y="240" as="targetPoint" />
          </mxGeometry>
        </mxCell>
        <mxCell id="UCdTi1GnOte8o6L_Yfmx-196" value="" style="ellipse;whiteSpace=wrap;html=1;aspect=fixed;fillColor=#d5e8d4;strokeColor=#82b366;" parent="1" vertex="1">
          <mxGeometry x="460" y="230" width="20" height="20" as="geometry" />
        </mxCell>
        <mxCell id="UCdTi1GnOte8o6L_Yfmx-221" value="" style="endArrow=none;dashed=1;html=1;rounded=0;elbow=vertical;entryX=0;entryY=0.5;entryDx=0;entryDy=0;fillColor=#e1d5e7;strokeColor=#9673a6;" parent="1" target="UCdTi1GnOte8o6L_Yfmx-217" edge="1">
          <mxGeometry width="50" height="50" relative="1" as="geometry">
            <mxPoint x="270" y="280" as="sourcePoint" />
            <mxPoint x="320" y="230" as="targetPoint" />
          </mxGeometry>
        </mxCell>
        <mxCell id="UCdTi1GnOte8o6L_Yfmx-223" value="Auto-test, Regression, &lt;b&gt;Peer review&lt;/b&gt;" style="whiteSpace=wrap;html=1;rounded=1;arcSize=50;align=center;verticalAlign=middle;strokeWidth=1;autosize=1;spacing=4;treeFolding=1;treeMoving=1;newEdgeStyle={&quot;edgeStyle&quot;:&quot;entityRelationEdgeStyle&quot;,&quot;startArrow&quot;:&quot;none&quot;,&quot;endArrow&quot;:&quot;none&quot;,&quot;segment&quot;:10,&quot;curved&quot;:1,&quot;sourcePerimeterSpacing&quot;:0,&quot;targetPerimeterSpacing&quot;:0};fillColor=#fff2cc;strokeColor=#d6b656;" parent="1" vertex="1">
          <mxGeometry x="440" y="190" width="230" height="30" as="geometry" />
        </mxCell>
        <mxCell id="UCdTi1GnOte8o6L_Yfmx-224" value="" style="edgeStyle=orthogonalEdgeStyle;startArrow=none;endArrow=none;segment=10;curved=1;sourcePerimeterSpacing=0;targetPerimeterSpacing=0;rounded=0;elbow=vertical;dashed=1;dashPattern=1 2;entryX=0.5;entryY=1;entryDx=0;entryDy=0;" parent="1" target="UCdTi1GnOte8o6L_Yfmx-223" edge="1">
          <mxGeometry relative="1" as="geometry">
            <mxPoint x="470" y="240" as="sourcePoint" />
          </mxGeometry>
        </mxCell>
        <mxCell id="UCdTi1GnOte8o6L_Yfmx-227" value="" style="ellipse;whiteSpace=wrap;html=1;aspect=fixed;fillColor=#d5e8d4;strokeColor=#82b366;fontSize=14;fontStyle=1" parent="1" vertex="1">
          <mxGeometry x="160.97000000000003" y="570" width="20" height="20" as="geometry" />
        </mxCell>
        <mxCell id="UCdTi1GnOte8o6L_Yfmx-231" value="" style="ellipse;whiteSpace=wrap;html=1;aspect=fixed;fontSize=14;fillColor=#e1d5e7;strokeColor=#9673a6;fontStyle=1" parent="1" vertex="1">
          <mxGeometry x="210.97000000000003" y="620" width="20" height="20" as="geometry" />
        </mxCell>
        <mxCell id="UCdTi1GnOte8o6L_Yfmx-233" style="rounded=1;orthogonalLoop=1;jettySize=auto;html=1;dashed=1;endArrow=none;endFill=0;fontSize=14;fontColor=#FFB570;fillColor=#e1d5e7;strokeColor=#9673a6;edgeStyle=orthogonalEdgeStyle;startArrow=blockThin;startFill=1;fontStyle=1" parent="1" edge="1">
          <mxGeometry relative="1" as="geometry">
            <mxPoint x="210" y="630" as="sourcePoint" />
            <mxPoint x="171" y="600" as="targetPoint" />
          </mxGeometry>
        </mxCell>
        <mxCell id="UCdTi1GnOte8o6L_Yfmx-236" value="" style="ellipse;whiteSpace=wrap;html=1;aspect=fixed;fillColor=#d5e8d4;strokeColor=#82b366;fontSize=14;fontStyle=1" parent="1" vertex="1">
          <mxGeometry x="294" y="570" width="20" height="20" as="geometry" />
        </mxCell>
        <mxCell id="UCdTi1GnOte8o6L_Yfmx-237" value="Tag" style="ellipse;whiteSpace=wrap;html=1;aspect=fixed;fillColor=#d5e8d4;strokeColor=#82b366;verticalAlign=middle;horizontal=1;fontSize=14;fontStyle=1" parent="1" vertex="1">
          <mxGeometry x="419" y="570" width="20" height="20" as="geometry" />
        </mxCell>
        <mxCell id="UCdTi1GnOte8o6L_Yfmx-238" value="" style="endArrow=none;dashed=1;html=1;rounded=0;elbow=vertical;entryX=0;entryY=0.5;entryDx=0;entryDy=0;fillColor=#d5e8d4;strokeColor=#82b366;fontSize=14;fontStyle=1" parent="1" target="UCdTi1GnOte8o6L_Yfmx-236" edge="1">
          <mxGeometry width="50" height="50" relative="1" as="geometry">
            <mxPoint x="184" y="580" as="sourcePoint" />
            <mxPoint x="234" y="530" as="targetPoint" />
          </mxGeometry>
        </mxCell>
        <mxCell id="UCdTi1GnOte8o6L_Yfmx-239" value="" style="endArrow=none;dashed=1;html=1;rounded=0;elbow=vertical;entryX=0;entryY=0.5;entryDx=0;entryDy=0;fillColor=#d5e8d4;strokeColor=#82b366;fontSize=14;fontStyle=1" parent="1" target="UCdTi1GnOte8o6L_Yfmx-237" edge="1">
          <mxGeometry width="50" height="50" relative="1" as="geometry">
            <mxPoint x="314" y="580" as="sourcePoint" />
            <mxPoint x="364" y="530" as="targetPoint" />
          </mxGeometry>
        </mxCell>
        <mxCell id="UCdTi1GnOte8o6L_Yfmx-241" value="" style="endArrow=none;dashed=1;html=1;rounded=1;elbow=vertical;entryX=1;entryY=0.5;entryDx=0;entryDy=0;exitX=0.5;exitY=1;exitDx=0;exitDy=0;startArrow=blockThin;startFill=1;edgeStyle=orthogonalEdgeStyle;curved=0;fillColor=#e1d5e7;strokeColor=#9673a6;fontSize=14;fontStyle=1" parent="1" source="UCdTi1GnOte8o6L_Yfmx-236" target="UCdTi1GnOte8o6L_Yfmx-231" edge="1">
          <mxGeometry width="50" height="50" relative="1" as="geometry">
            <mxPoint x="304" y="650" as="sourcePoint" />
            <mxPoint x="354" y="600" as="targetPoint" />
          </mxGeometry>
        </mxCell>
        <mxCell id="UCdTi1GnOte8o6L_Yfmx-252" value="MR" style="edgeLabel;html=1;align=center;verticalAlign=middle;resizable=0;points=[];fontSize=14;fontStyle=1" parent="UCdTi1GnOte8o6L_Yfmx-241" vertex="1" connectable="0">
          <mxGeometry x="0.2315" y="-1" relative="1" as="geometry">
            <mxPoint as="offset" />
          </mxGeometry>
        </mxCell>
        <mxCell id="UCdTi1GnOte8o6L_Yfmx-242" value="" style="ellipse;whiteSpace=wrap;html=1;aspect=fixed;fontSize=14;fillColor=#6d8764;strokeColor=#3A5431;fontColor=#ffffff;fontStyle=1" parent="1" vertex="1">
          <mxGeometry x="254" y="670" width="20" height="20" as="geometry" />
        </mxCell>
        <mxCell id="UCdTi1GnOte8o6L_Yfmx-243" value="" style="endArrow=none;dashed=1;html=1;rounded=1;elbow=vertical;exitX=0;exitY=0.5;exitDx=0;exitDy=0;entryX=0.5;entryY=1;entryDx=0;entryDy=0;edgeStyle=orthogonalEdgeStyle;curved=0;startArrow=blockThin;startFill=1;fillColor=#6d8764;strokeColor=#3A5431;fontSize=14;fontStyle=1" parent="1" source="UCdTi1GnOte8o6L_Yfmx-242" target="UCdTi1GnOte8o6L_Yfmx-227" edge="1">
          <mxGeometry width="50" height="50" relative="1" as="geometry">
            <mxPoint x="464" y="740" as="sourcePoint" />
            <mxPoint x="514" y="690" as="targetPoint" />
          </mxGeometry>
        </mxCell>
        <mxCell id="UCdTi1GnOte8o6L_Yfmx-244" value="" style="ellipse;whiteSpace=wrap;html=1;aspect=fixed;fontSize=14;fillColor=#6d8764;strokeColor=#3A5431;fontColor=#ffffff;fontStyle=1" parent="1" vertex="1">
          <mxGeometry x="364" y="670" width="20" height="20" as="geometry" />
        </mxCell>
        <mxCell id="UCdTi1GnOte8o6L_Yfmx-245" value="" style="endArrow=none;dashed=1;html=1;rounded=1;elbow=vertical;startArrow=blockThin;startFill=1;exitX=0.5;exitY=0;exitDx=0;exitDy=0;edgeStyle=orthogonalEdgeStyle;entryX=1;entryY=0.5;entryDx=0;entryDy=0;fillColor=#6d8764;strokeColor=#3A5431;fontSize=14;fontStyle=1" parent="1" source="UCdTi1GnOte8o6L_Yfmx-244" target="UCdTi1GnOte8o6L_Yfmx-236" edge="1">
          <mxGeometry width="50" height="50" relative="1" as="geometry">
            <mxPoint x="383.9910678118653" y="669.9989321881347" as="sourcePoint" />
            <mxPoint x="344" y="590" as="targetPoint" />
          </mxGeometry>
        </mxCell>
        <mxCell id="UCdTi1GnOte8o6L_Yfmx-253" value="Rebase" style="edgeLabel;align=center;verticalAlign=middle;resizable=0;points=[];fontSize=14;fontStyle=1;labelBackgroundColor=#FF3333;fontColor=#FFFFFF;" parent="UCdTi1GnOte8o6L_Yfmx-245" vertex="1" connectable="0">
          <mxGeometry x="-0.4667" y="2" relative="1" as="geometry">
            <mxPoint as="offset" />
          </mxGeometry>
        </mxCell>
        <mxCell id="UCdTi1GnOte8o6L_Yfmx-246" value="" style="endArrow=none;dashed=1;html=1;rounded=0;elbow=vertical;entryX=1;entryY=0.5;entryDx=0;entryDy=0;exitX=0;exitY=0.5;exitDx=0;exitDy=0;fillColor=#6d8764;strokeColor=#3A5431;fontSize=14;fontStyle=1" parent="1" source="UCdTi1GnOte8o6L_Yfmx-244" target="UCdTi1GnOte8o6L_Yfmx-242" edge="1">
          <mxGeometry width="50" height="50" relative="1" as="geometry">
            <mxPoint x="304" y="750" as="sourcePoint" />
            <mxPoint x="354" y="700" as="targetPoint" />
          </mxGeometry>
        </mxCell>
        <mxCell id="UCdTi1GnOte8o6L_Yfmx-247" value="" style="endArrow=none;dashed=1;html=1;rounded=1;elbow=vertical;exitX=0.5;exitY=1;exitDx=0;exitDy=0;entryX=1;entryY=0.5;entryDx=0;entryDy=0;edgeStyle=orthogonalEdgeStyle;curved=0;startArrow=blockThin;startFill=1;fillColor=#6d8764;strokeColor=#3A5431;fontSize=14;fontStyle=1" parent="1" source="UCdTi1GnOte8o6L_Yfmx-237" target="UCdTi1GnOte8o6L_Yfmx-244" edge="1">
          <mxGeometry width="50" height="50" relative="1" as="geometry">
            <mxPoint x="464" y="740" as="sourcePoint" />
            <mxPoint x="514" y="690" as="targetPoint" />
          </mxGeometry>
        </mxCell>
        <mxCell id="UCdTi1GnOte8o6L_Yfmx-254" value="MR" style="edgeLabel;html=1;align=center;verticalAlign=middle;resizable=0;points=[];fontSize=14;fontStyle=1" parent="UCdTi1GnOte8o6L_Yfmx-247" vertex="1" connectable="0">
          <mxGeometry x="-0.4963" relative="1" as="geometry">
            <mxPoint as="offset" />
          </mxGeometry>
        </mxCell>
        <mxCell id="UCdTi1GnOte8o6L_Yfmx-250" value="Dev" style="text;html=1;strokeColor=#82b366;fillColor=#d5e8d4;align=center;verticalAlign=middle;whiteSpace=wrap;rounded=0;fontSize=14;fontStyle=1" parent="1" vertex="1">
          <mxGeometry x="20" y="570" width="90" height="20" as="geometry" />
        </mxCell>
        <mxCell id="UCdTi1GnOte8o6L_Yfmx-255" value="Feat 1" style="text;html=1;strokeColor=#9673a6;fillColor=#e1d5e7;align=center;verticalAlign=middle;whiteSpace=wrap;rounded=0;fontSize=14;fontStyle=1" parent="1" vertex="1">
          <mxGeometry x="20" y="620" width="90" height="20" as="geometry" />
        </mxCell>
        <mxCell id="UCdTi1GnOte8o6L_Yfmx-256" value="Feat 2" style="text;html=1;strokeColor=#3A5431;fillColor=#6d8764;align=center;verticalAlign=middle;whiteSpace=wrap;rounded=0;fontColor=#ffffff;fontSize=14;fontStyle=1" parent="1" vertex="1">
          <mxGeometry x="20" y="670" width="90" height="20" as="geometry" />
        </mxCell>
        <mxCell id="UCdTi1GnOte8o6L_Yfmx-261" value="Daily build" style="whiteSpace=wrap;html=1;rounded=1;arcSize=50;align=center;verticalAlign=middle;strokeWidth=1;autosize=1;spacing=4;treeFolding=1;treeMoving=1;newEdgeStyle={&quot;edgeStyle&quot;:&quot;entityRelationEdgeStyle&quot;,&quot;startArrow&quot;:&quot;none&quot;,&quot;endArrow&quot;:&quot;none&quot;,&quot;segment&quot;:10,&quot;curved&quot;:1,&quot;sourcePerimeterSpacing&quot;:0,&quot;targetPerimeterSpacing&quot;:0};fillColor=#1ba1e2;fontColor=#ffffff;strokeColor=#006EAF;fontSize=14;fontStyle=1" parent="1" vertex="1">
          <mxGeometry x="379" y="500" width="120" height="30" as="geometry" />
        </mxCell>
        <mxCell id="UCdTi1GnOte8o6L_Yfmx-262" value="" style="startArrow=none;endArrow=none;segment=10;sourcePerimeterSpacing=0;targetPerimeterSpacing=0;rounded=0;elbow=vertical;dashed=1;dashPattern=1 2;fontSize=14;fontStyle=1" parent="1" target="UCdTi1GnOte8o6L_Yfmx-261" edge="1">
          <mxGeometry relative="1" as="geometry">
            <mxPoint x="430" y="570" as="sourcePoint" />
          </mxGeometry>
        </mxCell>
        <mxCell id="g2f2oQm5Uw73h0GvxtcE-175" value="" style="ellipse;whiteSpace=wrap;html=1;aspect=fixed;fillColor=#d5e8d4;strokeColor=#82b366;fontSize=14;fontStyle=1" vertex="1" parent="1">
          <mxGeometry x="344" y="810" width="20" height="20" as="geometry" />
        </mxCell>
        <mxCell id="g2f2oQm5Uw73h0GvxtcE-184" style="rounded=0;orthogonalLoop=1;jettySize=auto;html=1;exitX=1;exitY=0;exitDx=0;exitDy=0;entryX=0;entryY=1;entryDx=0;entryDy=0;dashed=1;fillColor=#f8cecc;strokeColor=#b85450;" edge="1" parent="1" source="g2f2oQm5Uw73h0GvxtcE-176" target="g2f2oQm5Uw73h0GvxtcE-183">
          <mxGeometry relative="1" as="geometry" />
        </mxCell>
        <mxCell id="g2f2oQm5Uw73h0GvxtcE-176" value="Tag" style="ellipse;whiteSpace=wrap;html=1;aspect=fixed;fillColor=#d5e8d4;strokeColor=#82b366;verticalAlign=middle;horizontal=1;fontSize=14;fontStyle=1" vertex="1" parent="1">
          <mxGeometry x="469" y="810" width="20" height="20" as="geometry" />
        </mxCell>
        <mxCell id="g2f2oQm5Uw73h0GvxtcE-178" value="" style="endArrow=none;dashed=1;html=1;rounded=0;elbow=vertical;entryX=0;entryY=0.5;entryDx=0;entryDy=0;fillColor=#d5e8d4;strokeColor=#82b366;fontSize=14;fontStyle=1" edge="1" parent="1" target="g2f2oQm5Uw73h0GvxtcE-176">
          <mxGeometry width="50" height="50" relative="1" as="geometry">
            <mxPoint x="364" y="820" as="sourcePoint" />
            <mxPoint x="414" y="770" as="targetPoint" />
          </mxGeometry>
        </mxCell>
        <mxCell id="g2f2oQm5Uw73h0GvxtcE-179" value="Dev" style="text;html=1;strokeColor=#82b366;fillColor=#d5e8d4;align=center;verticalAlign=middle;whiteSpace=wrap;rounded=0;fontSize=14;fontStyle=1" vertex="1" parent="1">
          <mxGeometry x="730" y="810" width="90" height="20" as="geometry" />
        </mxCell>
        <mxCell id="g2f2oQm5Uw73h0GvxtcE-181" value="" style="ellipse;whiteSpace=wrap;html=1;aspect=fixed;fillColor=#d5e8d4;strokeColor=#82b366;fontSize=14;fontStyle=1" vertex="1" parent="1">
          <mxGeometry x="590" y="810" width="20" height="20" as="geometry" />
        </mxCell>
        <mxCell id="g2f2oQm5Uw73h0GvxtcE-182" value="" style="endArrow=none;dashed=1;html=1;rounded=0;elbow=vertical;entryX=0;entryY=0.5;entryDx=0;entryDy=0;fillColor=#d5e8d4;strokeColor=#82b366;fontSize=14;fontStyle=1" edge="1" parent="1">
          <mxGeometry width="50" height="50" relative="1" as="geometry">
            <mxPoint x="489" y="819" as="sourcePoint" />
            <mxPoint x="594" y="819" as="targetPoint" />
          </mxGeometry>
        </mxCell>
        <mxCell id="g2f2oQm5Uw73h0GvxtcE-222" value="" style="edgeStyle=orthogonalEdgeStyle;rounded=0;orthogonalLoop=1;jettySize=auto;html=1;" edge="1" parent="1" source="g2f2oQm5Uw73h0GvxtcE-183" target="g2f2oQm5Uw73h0GvxtcE-221">
          <mxGeometry relative="1" as="geometry" />
        </mxCell>
        <mxCell id="g2f2oQm5Uw73h0GvxtcE-183" value="" style="ellipse;whiteSpace=wrap;html=1;aspect=fixed;fillColor=#f8cecc;strokeColor=#b85450;fontSize=14;fontStyle=1" vertex="1" parent="1">
          <mxGeometry x="550" y="750" width="20" height="20" as="geometry" />
        </mxCell>
        <mxCell id="g2f2oQm5Uw73h0GvxtcE-185" value="" style="endArrow=none;dashed=1;html=1;rounded=0;elbow=vertical;entryX=0;entryY=0.5;entryDx=0;entryDy=0;fillColor=#f8cecc;strokeColor=#b85450;fontSize=14;fontStyle=1" edge="1" parent="1">
          <mxGeometry width="50" height="50" relative="1" as="geometry">
            <mxPoint x="570" y="759.5" as="sourcePoint" />
            <mxPoint x="675" y="759.5" as="targetPoint" />
          </mxGeometry>
        </mxCell>
        <mxCell id="g2f2oQm5Uw73h0GvxtcE-186" value="" style="endArrow=none;dashed=1;html=1;rounded=0;elbow=vertical;entryX=0;entryY=0.5;entryDx=0;entryDy=0;fillColor=#d5e8d4;strokeColor=#82b366;fontSize=14;fontStyle=1" edge="1" parent="1">
          <mxGeometry width="50" height="50" relative="1" as="geometry">
            <mxPoint x="615" y="819.5" as="sourcePoint" />
            <mxPoint x="720" y="819.5" as="targetPoint" />
          </mxGeometry>
        </mxCell>
        <mxCell id="g2f2oQm5Uw73h0GvxtcE-187" value="Release" style="text;html=1;strokeColor=#b85450;fillColor=#f8cecc;align=center;verticalAlign=middle;whiteSpace=wrap;rounded=0;fontSize=14;fontStyle=1" vertex="1" parent="1">
          <mxGeometry x="730" y="750" width="90" height="20" as="geometry" />
        </mxCell>
        <mxCell id="g2f2oQm5Uw73h0GvxtcE-208" style="edgeStyle=orthogonalEdgeStyle;rounded=1;orthogonalLoop=1;jettySize=auto;html=1;exitX=0.5;exitY=0;exitDx=0;exitDy=0;entryX=0;entryY=0.5;entryDx=0;entryDy=0;curved=0;dashed=1;fillColor=#1ba1e2;strokeColor=#006EAF;" edge="1" parent="1" source="g2f2oQm5Uw73h0GvxtcE-200" target="g2f2oQm5Uw73h0GvxtcE-206">
          <mxGeometry relative="1" as="geometry" />
        </mxCell>
        <mxCell id="g2f2oQm5Uw73h0GvxtcE-200" value="Tag" style="ellipse;whiteSpace=wrap;html=1;aspect=fixed;fillColor=#d5e8d4;strokeColor=#82b366;verticalAlign=middle;horizontal=1;fontSize=14;fontStyle=1" vertex="1" parent="1">
          <mxGeometry x="235" y="1050" width="20" height="20" as="geometry" />
        </mxCell>
        <mxCell id="g2f2oQm5Uw73h0GvxtcE-201" value="" style="endArrow=none;dashed=1;html=1;rounded=0;elbow=vertical;entryX=0;entryY=0.5;entryDx=0;entryDy=0;fillColor=#d5e8d4;strokeColor=#82b366;fontSize=14;fontStyle=1" edge="1" parent="1" target="g2f2oQm5Uw73h0GvxtcE-200" source="g2f2oQm5Uw73h0GvxtcE-199">
          <mxGeometry width="50" height="50" relative="1" as="geometry">
            <mxPoint x="130" y="1060" as="sourcePoint" />
            <mxPoint x="180" y="1010" as="targetPoint" />
          </mxGeometry>
        </mxCell>
        <mxCell id="g2f2oQm5Uw73h0GvxtcE-202" value="Dev" style="text;html=1;strokeColor=#82b366;fillColor=#d5e8d4;align=center;verticalAlign=middle;whiteSpace=wrap;rounded=0;fontSize=14;fontStyle=1" vertex="1" parent="1">
          <mxGeometry x="650" y="1050" width="90" height="20" as="geometry" />
        </mxCell>
        <mxCell id="g2f2oQm5Uw73h0GvxtcE-203" value="" style="ellipse;whiteSpace=wrap;html=1;aspect=fixed;fillColor=#d5e8d4;strokeColor=#82b366;fontSize=14;fontStyle=1" vertex="1" parent="1">
          <mxGeometry x="356" y="1050" width="20" height="20" as="geometry" />
        </mxCell>
        <mxCell id="g2f2oQm5Uw73h0GvxtcE-204" value="" style="endArrow=none;dashed=1;html=1;rounded=0;elbow=vertical;entryX=0;entryY=0.5;entryDx=0;entryDy=0;fillColor=#d5e8d4;strokeColor=#82b366;fontSize=14;fontStyle=1" edge="1" parent="1">
          <mxGeometry width="50" height="50" relative="1" as="geometry">
            <mxPoint x="255" y="1059" as="sourcePoint" />
            <mxPoint x="360" y="1059" as="targetPoint" />
          </mxGeometry>
        </mxCell>
        <mxCell id="g2f2oQm5Uw73h0GvxtcE-205" value="" style="endArrow=none;dashed=1;html=1;rounded=0;elbow=vertical;fillColor=#d5e8d4;strokeColor=#82b366;fontSize=14;fontStyle=1" edge="1" parent="1">
          <mxGeometry width="50" height="50" relative="1" as="geometry">
            <mxPoint x="381" y="1059.5" as="sourcePoint" />
            <mxPoint x="510" y="1060" as="targetPoint" />
          </mxGeometry>
        </mxCell>
        <mxCell id="g2f2oQm5Uw73h0GvxtcE-211" style="edgeStyle=orthogonalEdgeStyle;rounded=0;orthogonalLoop=1;jettySize=auto;html=1;exitX=1;exitY=0.5;exitDx=0;exitDy=0;endArrow=none;endFill=0;dashed=1;entryX=0;entryY=0.5;entryDx=0;entryDy=0;fillColor=#1ba1e2;strokeColor=#006EAF;" edge="1" parent="1" source="g2f2oQm5Uw73h0GvxtcE-206" target="g2f2oQm5Uw73h0GvxtcE-210">
          <mxGeometry relative="1" as="geometry">
            <mxPoint x="400" y="1000" as="targetPoint" />
          </mxGeometry>
        </mxCell>
        <mxCell id="g2f2oQm5Uw73h0GvxtcE-250" value="&lt;b&gt;&lt;font style=&quot;font-size: 14px;&quot;&gt;Clear&lt;/font&gt;&lt;/b&gt;" style="edgeLabel;html=1;align=center;verticalAlign=middle;resizable=0;points=[];" vertex="1" connectable="0" parent="g2f2oQm5Uw73h0GvxtcE-211">
          <mxGeometry x="-0.104" y="-1" relative="1" as="geometry">
            <mxPoint as="offset" />
          </mxGeometry>
        </mxCell>
        <mxCell id="g2f2oQm5Uw73h0GvxtcE-213" style="edgeStyle=orthogonalEdgeStyle;rounded=1;orthogonalLoop=1;jettySize=auto;html=1;exitX=0.5;exitY=1;exitDx=0;exitDy=0;entryX=0;entryY=0.5;entryDx=0;entryDy=0;endArrow=none;endFill=0;dashed=1;curved=0;fillColor=#6d8764;strokeColor=#3A5431;" edge="1" parent="1" source="g2f2oQm5Uw73h0GvxtcE-210" target="g2f2oQm5Uw73h0GvxtcE-212">
          <mxGeometry relative="1" as="geometry" />
        </mxCell>
        <mxCell id="g2f2oQm5Uw73h0GvxtcE-251" value="&lt;b&gt;&lt;font style=&quot;font-size: 14px;&quot;&gt;feat&lt;/font&gt;&lt;/b&gt;" style="edgeLabel;html=1;align=center;verticalAlign=middle;resizable=0;points=[];" vertex="1" connectable="0" parent="g2f2oQm5Uw73h0GvxtcE-213">
          <mxGeometry x="0.3574" y="-1" relative="1" as="geometry">
            <mxPoint as="offset" />
          </mxGeometry>
        </mxCell>
        <mxCell id="g2f2oQm5Uw73h0GvxtcE-206" value="" style="ellipse;whiteSpace=wrap;html=1;aspect=fixed;fillColor=#1ba1e2;strokeColor=#006EAF;fontSize=14;fontStyle=1;fontColor=#ffffff;" vertex="1" parent="1">
          <mxGeometry x="294" y="990" width="20" height="20" as="geometry" />
        </mxCell>
        <mxCell id="g2f2oQm5Uw73h0GvxtcE-210" value="" style="ellipse;whiteSpace=wrap;html=1;aspect=fixed;fillColor=#1ba1e2;strokeColor=#006EAF;fontSize=14;fontStyle=1;fontColor=#ffffff;" vertex="1" parent="1">
          <mxGeometry x="364" y="990" width="20" height="20" as="geometry" />
        </mxCell>
        <mxCell id="g2f2oQm5Uw73h0GvxtcE-218" style="edgeStyle=orthogonalEdgeStyle;rounded=1;orthogonalLoop=1;jettySize=auto;html=1;exitX=1;exitY=0.5;exitDx=0;exitDy=0;entryX=0.5;entryY=1;entryDx=0;entryDy=0;curved=0;dashed=1;fillColor=#6d8764;strokeColor=#3A5431;" edge="1" parent="1" source="g2f2oQm5Uw73h0GvxtcE-212" target="g2f2oQm5Uw73h0GvxtcE-216">
          <mxGeometry relative="1" as="geometry" />
        </mxCell>
        <mxCell id="g2f2oQm5Uw73h0GvxtcE-212" value="" style="ellipse;whiteSpace=wrap;html=1;aspect=fixed;fillColor=#6d8764;strokeColor=#3A5431;fontSize=14;fontStyle=1;fontColor=#ffffff;" vertex="1" parent="1">
          <mxGeometry x="415" y="1020" width="20" height="20" as="geometry" />
        </mxCell>
        <mxCell id="g2f2oQm5Uw73h0GvxtcE-215" style="edgeStyle=orthogonalEdgeStyle;rounded=0;orthogonalLoop=1;jettySize=auto;html=1;exitX=1;exitY=0.5;exitDx=0;exitDy=0;endArrow=none;endFill=0;dashed=1;entryX=0;entryY=0.5;entryDx=0;entryDy=0;fillColor=#1ba1e2;strokeColor=#006EAF;" edge="1" parent="1" source="g2f2oQm5Uw73h0GvxtcE-210" target="g2f2oQm5Uw73h0GvxtcE-216">
          <mxGeometry relative="1" as="geometry">
            <mxPoint x="516" y="999.5" as="targetPoint" />
            <mxPoint x="425" y="999.5" as="sourcePoint" />
            <Array as="points" />
          </mxGeometry>
        </mxCell>
        <mxCell id="g2f2oQm5Uw73h0GvxtcE-244" style="rounded=0;orthogonalLoop=1;jettySize=auto;html=1;exitX=0.5;exitY=0;exitDx=0;exitDy=0;entryX=0;entryY=0.5;entryDx=0;entryDy=0;dashed=1;fillColor=#f8cecc;strokeColor=#b85450;" edge="1" parent="1" source="g2f2oQm5Uw73h0GvxtcE-216" target="g2f2oQm5Uw73h0GvxtcE-239">
          <mxGeometry relative="1" as="geometry" />
        </mxCell>
        <mxCell id="g2f2oQm5Uw73h0GvxtcE-216" value="Tag" style="ellipse;whiteSpace=wrap;html=1;aspect=fixed;fillColor=#1ba1e2;strokeColor=#006EAF;fontSize=14;fontStyle=1;fontColor=#ffffff;" vertex="1" parent="1">
          <mxGeometry x="460" y="990" width="20" height="20" as="geometry" />
        </mxCell>
        <mxCell id="g2f2oQm5Uw73h0GvxtcE-220" style="edgeStyle=orthogonalEdgeStyle;rounded=0;orthogonalLoop=1;jettySize=auto;html=1;exitX=1;exitY=0.5;exitDx=0;exitDy=0;endArrow=none;endFill=0;dashed=1;fillColor=#1ba1e2;strokeColor=#006EAF;" edge="1" parent="1">
          <mxGeometry relative="1" as="geometry">
            <mxPoint x="545" y="1000" as="targetPoint" />
            <mxPoint x="480" y="999.5" as="sourcePoint" />
            <Array as="points" />
          </mxGeometry>
        </mxCell>
        <mxCell id="g2f2oQm5Uw73h0GvxtcE-221" value="" style="ellipse;whiteSpace=wrap;html=1;aspect=fixed;fillColor=#f8cecc;strokeColor=#b85450;fontSize=14;fontStyle=1" vertex="1" parent="1">
          <mxGeometry x="650" y="750" width="20" height="20" as="geometry" />
        </mxCell>
        <mxCell id="g2f2oQm5Uw73h0GvxtcE-238" value="" style="edgeStyle=orthogonalEdgeStyle;rounded=0;orthogonalLoop=1;jettySize=auto;html=1;endArrow=none;endFill=0;dashed=1;fillColor=#f8cecc;strokeColor=#b85450;" edge="1" parent="1" source="g2f2oQm5Uw73h0GvxtcE-239" target="g2f2oQm5Uw73h0GvxtcE-242">
          <mxGeometry relative="1" as="geometry" />
        </mxCell>
        <mxCell id="g2f2oQm5Uw73h0GvxtcE-239" value="" style="ellipse;whiteSpace=wrap;html=1;aspect=fixed;fillColor=#f8cecc;strokeColor=#b85450;fontSize=14;fontStyle=1" vertex="1" parent="1">
          <mxGeometry x="499" y="928" width="20" height="20" as="geometry" />
        </mxCell>
        <mxCell id="g2f2oQm5Uw73h0GvxtcE-241" value="Release" style="text;html=1;strokeColor=#b85450;fillColor=#f8cecc;align=center;verticalAlign=middle;whiteSpace=wrap;rounded=0;fontSize=14;fontStyle=1" vertex="1" parent="1">
          <mxGeometry x="650" y="928" width="90" height="20" as="geometry" />
        </mxCell>
        <mxCell id="g2f2oQm5Uw73h0GvxtcE-242" value="" style="ellipse;whiteSpace=wrap;html=1;aspect=fixed;fillColor=#f8cecc;strokeColor=#b85450;fontSize=14;fontStyle=1" vertex="1" parent="1">
          <mxGeometry x="599" y="928" width="20" height="20" as="geometry" />
        </mxCell>
        <mxCell id="g2f2oQm5Uw73h0GvxtcE-245" value="Dev2" style="text;html=1;strokeColor=#82b366;fillColor=#d5e8d4;align=center;verticalAlign=middle;whiteSpace=wrap;rounded=0;fontSize=14;fontStyle=1" vertex="1" parent="1">
          <mxGeometry x="650" y="990" width="90" height="20" as="geometry" />
        </mxCell>
        <mxCell id="g2f2oQm5Uw73h0GvxtcE-199" value="" style="ellipse;whiteSpace=wrap;html=1;aspect=fixed;fillColor=#d5e8d4;strokeColor=#82b366;fontSize=14;fontStyle=1" vertex="1" parent="1">
          <mxGeometry x="150" y="1050" width="20" height="20" as="geometry" />
        </mxCell>
        <mxCell id="g2f2oQm5Uw73h0GvxtcE-252" value="SIT" style="whiteSpace=wrap;html=1;shape=partialRectangle;top=0;left=0;bottom=1;right=0;points=[[0,1],[1,1]];fillColor=none;align=center;verticalAlign=bottom;routingCenterY=0.5;snapToPoint=1;recursiveResize=0;autosize=1;treeFolding=1;treeMoving=1;newEdgeStyle={&quot;edgeStyle&quot;:&quot;entityRelationEdgeStyle&quot;,&quot;startArrow&quot;:&quot;none&quot;,&quot;endArrow&quot;:&quot;none&quot;,&quot;segment&quot;:10,&quot;curved&quot;:1,&quot;sourcePerimeterSpacing&quot;:0,&quot;targetPerimeterSpacing&quot;:0};fontStyle=1;fontSize=14;fontColor=#67AB9F;" vertex="1" parent="1">
          <mxGeometry x="540" y="1000" width="60" height="30" as="geometry" />
        </mxCell>
        <mxCell id="g2f2oQm5Uw73h0GvxtcE-253" value="" style="edgeStyle=entityRelationEdgeStyle;startArrow=none;endArrow=none;segment=10;curved=1;sourcePerimeterSpacing=0;targetPerimeterSpacing=0;rounded=0;exitX=1;exitY=1;exitDx=0;exitDy=0;dashed=1;dashPattern=1 2;" edge="1" target="g2f2oQm5Uw73h0GvxtcE-252" parent="1" source="g2f2oQm5Uw73h0GvxtcE-216">
          <mxGeometry relative="1" as="geometry">
            <mxPoint x="490" y="1050" as="sourcePoint" />
          </mxGeometry>
        </mxCell>
        <mxCell id="g2f2oQm5Uw73h0GvxtcE-254" value="SIT" style="whiteSpace=wrap;html=1;shape=partialRectangle;top=0;left=0;bottom=1;right=0;points=[[0,1],[1,1]];fillColor=none;align=center;verticalAlign=bottom;routingCenterY=0.5;snapToPoint=1;recursiveResize=0;autosize=1;treeFolding=1;treeMoving=1;newEdgeStyle={&quot;edgeStyle&quot;:&quot;entityRelationEdgeStyle&quot;,&quot;startArrow&quot;:&quot;none&quot;,&quot;endArrow&quot;:&quot;none&quot;,&quot;segment&quot;:10,&quot;curved&quot;:1,&quot;sourcePerimeterSpacing&quot;:0,&quot;targetPerimeterSpacing&quot;:0};fontStyle=1;fontSize=14;fontColor=#67AB9F;" vertex="1" parent="1">
          <mxGeometry x="540" y="840" width="60" height="30" as="geometry" />
        </mxCell>
        <mxCell id="g2f2oQm5Uw73h0GvxtcE-255" value="" style="edgeStyle=entityRelationEdgeStyle;startArrow=none;endArrow=none;segment=10;curved=1;sourcePerimeterSpacing=0;targetPerimeterSpacing=0;rounded=0;exitX=0.5;exitY=1;exitDx=0;exitDy=0;dashed=1;dashPattern=1 2;" edge="1" target="g2f2oQm5Uw73h0GvxtcE-254" parent="1" source="g2f2oQm5Uw73h0GvxtcE-176">
          <mxGeometry relative="1" as="geometry">
            <mxPoint x="490" y="890" as="sourcePoint" />
          </mxGeometry>
        </mxCell>
        <mxCell id="g2f2oQm5Uw73h0GvxtcE-258" value="&lt;font color=&quot;#f19c99&quot;&gt;UAT&lt;/font&gt;" style="whiteSpace=wrap;html=1;shape=partialRectangle;top=0;left=0;bottom=1;right=0;points=[[0,1],[1,1]];fillColor=none;align=center;verticalAlign=bottom;routingCenterY=0.5;snapToPoint=1;recursiveResize=0;autosize=1;treeFolding=1;treeMoving=1;newEdgeStyle={&quot;edgeStyle&quot;:&quot;entityRelationEdgeStyle&quot;,&quot;startArrow&quot;:&quot;none&quot;,&quot;endArrow&quot;:&quot;none&quot;,&quot;segment&quot;:10,&quot;curved&quot;:1,&quot;sourcePerimeterSpacing&quot;:0,&quot;targetPerimeterSpacing&quot;:0};fontStyle=1;fontSize=14;" vertex="1" parent="1">
          <mxGeometry x="655" y="880" width="70" height="30" as="geometry" />
        </mxCell>
        <mxCell id="g2f2oQm5Uw73h0GvxtcE-259" value="" style="edgeStyle=entityRelationEdgeStyle;startArrow=none;endArrow=none;segment=10;curved=1;sourcePerimeterSpacing=0;targetPerimeterSpacing=0;rounded=0;dashed=1;dashPattern=1 2;" edge="1" target="g2f2oQm5Uw73h0GvxtcE-258" parent="1">
          <mxGeometry relative="1" as="geometry">
            <mxPoint x="610" y="930" as="sourcePoint" />
          </mxGeometry>
        </mxCell>
        <mxCell id="g2f2oQm5Uw73h0GvxtcE-260" value="UAT" style="whiteSpace=wrap;html=1;shape=partialRectangle;top=0;left=0;bottom=1;right=0;points=[[0,1],[1,1]];fillColor=none;align=center;verticalAlign=bottom;routingCenterY=0.5;snapToPoint=1;recursiveResize=0;autosize=1;treeFolding=1;treeMoving=1;newEdgeStyle={&quot;edgeStyle&quot;:&quot;entityRelationEdgeStyle&quot;,&quot;startArrow&quot;:&quot;none&quot;,&quot;endArrow&quot;:&quot;none&quot;,&quot;segment&quot;:10,&quot;curved&quot;:1,&quot;sourcePerimeterSpacing&quot;:0,&quot;targetPerimeterSpacing&quot;:0};fontSize=14;fontStyle=1;fontColor=#F19C99;" vertex="1" parent="1">
          <mxGeometry x="705" y="700" width="70" height="30" as="geometry" />
        </mxCell>
        <mxCell id="g2f2oQm5Uw73h0GvxtcE-261" value="" style="edgeStyle=entityRelationEdgeStyle;startArrow=none;endArrow=none;segment=10;curved=1;sourcePerimeterSpacing=0;targetPerimeterSpacing=0;rounded=0;dashed=1;dashPattern=1 2;" edge="1" target="g2f2oQm5Uw73h0GvxtcE-260" parent="1">
          <mxGeometry relative="1" as="geometry">
            <mxPoint x="660" y="750" as="sourcePoint" />
          </mxGeometry>
        </mxCell>
        <mxCell id="g2f2oQm5Uw73h0GvxtcE-263" value="" style="ellipse;whiteSpace=wrap;html=1;aspect=fixed;fillColor=#d5e8d4;strokeColor=#82b366;fontSize=14;fontStyle=1" vertex="1" parent="1">
          <mxGeometry x="1030" y="650" width="20" height="20" as="geometry" />
        </mxCell>
        <mxCell id="g2f2oQm5Uw73h0GvxtcE-264" style="rounded=1;orthogonalLoop=1;jettySize=auto;html=1;dashed=1;fillColor=#f8cecc;strokeColor=#b85450;edgeStyle=orthogonalEdgeStyle;entryX=0;entryY=0.5;entryDx=0;entryDy=0;exitX=0.5;exitY=0;exitDx=0;exitDy=0;curved=0;" edge="1" parent="1" source="g2f2oQm5Uw73h0GvxtcE-265" target="g2f2oQm5Uw73h0GvxtcE-271">
          <mxGeometry relative="1" as="geometry">
            <mxPoint x="1160" y="630" as="sourcePoint" />
            <mxPoint x="1172" y="560" as="targetPoint" />
          </mxGeometry>
        </mxCell>
        <mxCell id="g2f2oQm5Uw73h0GvxtcE-265" value="" style="ellipse;whiteSpace=wrap;html=1;aspect=fixed;fillColor=#d5e8d4;strokeColor=#82b366;verticalAlign=middle;horizontal=1;fontSize=14;fontStyle=1" vertex="1" parent="1">
          <mxGeometry x="1155" y="650" width="20" height="20" as="geometry" />
        </mxCell>
        <mxCell id="g2f2oQm5Uw73h0GvxtcE-266" value="" style="endArrow=none;dashed=1;html=1;rounded=0;elbow=vertical;entryX=0;entryY=0.5;entryDx=0;entryDy=0;fillColor=#d5e8d4;strokeColor=#82b366;fontSize=14;fontStyle=1" edge="1" parent="1" target="g2f2oQm5Uw73h0GvxtcE-265">
          <mxGeometry width="50" height="50" relative="1" as="geometry">
            <mxPoint x="1050" y="660" as="sourcePoint" />
            <mxPoint x="1100" y="610" as="targetPoint" />
          </mxGeometry>
        </mxCell>
        <mxCell id="g2f2oQm5Uw73h0GvxtcE-267" value="Dev" style="text;html=1;strokeColor=#82b366;fillColor=#d5e8d4;align=center;verticalAlign=middle;whiteSpace=wrap;rounded=0;fontSize=14;fontStyle=1" vertex="1" parent="1">
          <mxGeometry x="1416" y="650" width="90" height="20" as="geometry" />
        </mxCell>
        <mxCell id="g2f2oQm5Uw73h0GvxtcE-269" value="" style="endArrow=none;dashed=1;html=1;rounded=0;elbow=vertical;entryX=0;entryY=0.5;entryDx=0;entryDy=0;fillColor=#d5e8d4;strokeColor=#82b366;fontSize=14;fontStyle=1" edge="1" parent="1" source="g2f2oQm5Uw73h0GvxtcE-268" target="g2f2oQm5Uw73h0GvxtcE-295">
          <mxGeometry width="50" height="50" relative="1" as="geometry">
            <mxPoint x="1175" y="659" as="sourcePoint" />
            <mxPoint x="1280" y="659" as="targetPoint" />
          </mxGeometry>
        </mxCell>
        <mxCell id="g2f2oQm5Uw73h0GvxtcE-270" value="" style="rounded=0;orthogonalLoop=1;jettySize=auto;html=1;fillColor=#f8cecc;strokeColor=#b85450;dashed=1;endArrow=none;endFill=0;exitX=1;exitY=0.5;exitDx=0;exitDy=0;" edge="1" parent="1" source="g2f2oQm5Uw73h0GvxtcE-271">
          <mxGeometry relative="1" as="geometry">
            <mxPoint x="1227" y="584" as="sourcePoint" />
            <mxPoint x="1297" y="584" as="targetPoint" />
          </mxGeometry>
        </mxCell>
        <mxCell id="g2f2oQm5Uw73h0GvxtcE-289" style="rounded=1;orthogonalLoop=1;jettySize=auto;html=1;exitX=0.5;exitY=1;exitDx=0;exitDy=0;entryX=0;entryY=0.5;entryDx=0;entryDy=0;dashed=1;edgeStyle=orthogonalEdgeStyle;fillColor=#a0522d;strokeColor=#6D1F00;endArrow=none;endFill=0;" edge="1" parent="1" source="g2f2oQm5Uw73h0GvxtcE-271" target="g2f2oQm5Uw73h0GvxtcE-281">
          <mxGeometry relative="1" as="geometry" />
        </mxCell>
        <mxCell id="g2f2oQm5Uw73h0GvxtcE-292" value="defect" style="edgeLabel;html=1;align=center;verticalAlign=middle;resizable=0;points=[];fontStyle=1;fontSize=14;" vertex="1" connectable="0" parent="g2f2oQm5Uw73h0GvxtcE-289">
          <mxGeometry x="0.0305" y="-2" relative="1" as="geometry">
            <mxPoint as="offset" />
          </mxGeometry>
        </mxCell>
        <mxCell id="g2f2oQm5Uw73h0GvxtcE-271" value="" style="ellipse;whiteSpace=wrap;html=1;aspect=fixed;fillColor=#f8cecc;strokeColor=#b85450;fontSize=14;fontStyle=1" vertex="1" parent="1">
          <mxGeometry x="1196" y="574" width="20" height="20" as="geometry" />
        </mxCell>
        <mxCell id="g2f2oQm5Uw73h0GvxtcE-273" value="" style="endArrow=none;dashed=1;html=1;rounded=0;elbow=vertical;fillColor=#d5e8d4;strokeColor=#82b366;fontSize=14;fontStyle=1" edge="1" parent="1" source="g2f2oQm5Uw73h0GvxtcE-295">
          <mxGeometry width="50" height="50" relative="1" as="geometry">
            <mxPoint x="1357" y="659.5" as="sourcePoint" />
            <mxPoint x="1410" y="660" as="targetPoint" />
          </mxGeometry>
        </mxCell>
        <mxCell id="g2f2oQm5Uw73h0GvxtcE-274" value="Release" style="text;html=1;strokeColor=#b85450;fillColor=#f8cecc;align=center;verticalAlign=middle;whiteSpace=wrap;rounded=0;fontSize=14;fontStyle=1" vertex="1" parent="1">
          <mxGeometry x="1417" y="574" width="90" height="20" as="geometry" />
        </mxCell>
        <mxCell id="g2f2oQm5Uw73h0GvxtcE-298" style="edgeStyle=orthogonalEdgeStyle;rounded=1;orthogonalLoop=1;jettySize=auto;html=1;exitX=1;exitY=0.5;exitDx=0;exitDy=0;entryX=0.5;entryY=0;entryDx=0;entryDy=0;curved=0;dashed=1;fillColor=#d5e8d4;strokeColor=#82b366;" edge="1" parent="1" source="g2f2oQm5Uw73h0GvxtcE-275" target="g2f2oQm5Uw73h0GvxtcE-295">
          <mxGeometry relative="1" as="geometry" />
        </mxCell>
        <mxCell id="g2f2oQm5Uw73h0GvxtcE-275" value="" style="ellipse;whiteSpace=wrap;html=1;aspect=fixed;fillColor=#f8cecc;strokeColor=#b85450;fontSize=14;fontStyle=1" vertex="1" parent="1">
          <mxGeometry x="1297" y="574" width="20" height="20" as="geometry" />
        </mxCell>
        <mxCell id="g2f2oQm5Uw73h0GvxtcE-278" value="UAT" style="whiteSpace=wrap;html=1;shape=partialRectangle;top=0;left=0;bottom=1;right=0;points=[[0,1],[1,1]];fillColor=none;align=center;verticalAlign=bottom;routingCenterY=0.5;snapToPoint=1;recursiveResize=0;autosize=1;treeFolding=1;treeMoving=1;newEdgeStyle={&quot;edgeStyle&quot;:&quot;entityRelationEdgeStyle&quot;,&quot;startArrow&quot;:&quot;none&quot;,&quot;endArrow&quot;:&quot;none&quot;,&quot;segment&quot;:10,&quot;curved&quot;:1,&quot;sourcePerimeterSpacing&quot;:0,&quot;targetPerimeterSpacing&quot;:0};fontSize=14;fontStyle=1;fontColor=#F19C99;" vertex="1" parent="1">
          <mxGeometry x="1335" y="524" width="70" height="30" as="geometry" />
        </mxCell>
        <mxCell id="g2f2oQm5Uw73h0GvxtcE-279" value="" style="edgeStyle=entityRelationEdgeStyle;startArrow=none;endArrow=none;segment=10;curved=1;sourcePerimeterSpacing=0;targetPerimeterSpacing=0;rounded=0;dashed=1;dashPattern=1 2;" edge="1" parent="1" target="g2f2oQm5Uw73h0GvxtcE-278">
          <mxGeometry relative="1" as="geometry">
            <mxPoint x="1312" y="574" as="sourcePoint" />
          </mxGeometry>
        </mxCell>
        <mxCell id="g2f2oQm5Uw73h0GvxtcE-290" style="edgeStyle=orthogonalEdgeStyle;rounded=1;orthogonalLoop=1;jettySize=auto;html=1;exitX=1;exitY=0.5;exitDx=0;exitDy=0;entryX=0.5;entryY=1;entryDx=0;entryDy=0;fillColor=#a0522d;strokeColor=#6D1F00;dashed=1;curved=0;" edge="1" parent="1" source="g2f2oQm5Uw73h0GvxtcE-281" target="g2f2oQm5Uw73h0GvxtcE-275">
          <mxGeometry relative="1" as="geometry" />
        </mxCell>
        <mxCell id="g2f2oQm5Uw73h0GvxtcE-281" value="" style="ellipse;whiteSpace=wrap;html=1;aspect=fixed;fillColor=#a0522d;strokeColor=#6D1F00;fontSize=14;fontStyle=1;fontColor=#ffffff;" vertex="1" parent="1">
          <mxGeometry x="1249" y="604" width="20" height="20" as="geometry" />
        </mxCell>
        <mxCell id="g2f2oQm5Uw73h0GvxtcE-294" value="" style="endArrow=none;dashed=1;html=1;rounded=0;elbow=vertical;entryX=0;entryY=0.5;entryDx=0;entryDy=0;fillColor=#d5e8d4;strokeColor=#82b366;fontSize=14;fontStyle=1" edge="1" parent="1" target="g2f2oQm5Uw73h0GvxtcE-268">
          <mxGeometry width="50" height="50" relative="1" as="geometry">
            <mxPoint x="1175" y="659" as="sourcePoint" />
            <mxPoint x="1280" y="659" as="targetPoint" />
          </mxGeometry>
        </mxCell>
        <mxCell id="g2f2oQm5Uw73h0GvxtcE-268" value="" style="ellipse;whiteSpace=wrap;html=1;aspect=fixed;fillColor=#d5e8d4;strokeColor=#82b366;fontSize=14;fontStyle=1" vertex="1" parent="1">
          <mxGeometry x="1249" y="650" width="20" height="20" as="geometry" />
        </mxCell>
        <mxCell id="g2f2oQm5Uw73h0GvxtcE-296" value="" style="endArrow=none;dashed=1;html=1;rounded=0;elbow=vertical;entryX=0;entryY=0.5;entryDx=0;entryDy=0;fillColor=#d5e8d4;strokeColor=#82b366;fontSize=14;fontStyle=1" edge="1" parent="1" target="g2f2oQm5Uw73h0GvxtcE-295">
          <mxGeometry width="50" height="50" relative="1" as="geometry">
            <mxPoint x="1357" y="659.5" as="sourcePoint" />
            <mxPoint x="1462" y="659.5" as="targetPoint" />
          </mxGeometry>
        </mxCell>
        <mxCell id="g2f2oQm5Uw73h0GvxtcE-295" value="" style="ellipse;whiteSpace=wrap;html=1;aspect=fixed;fillColor=#d5e8d4;strokeColor=#82b366;fontSize=14;fontStyle=1" vertex="1" parent="1">
          <mxGeometry x="1350" y="650" width="20" height="20" as="geometry" />
        </mxCell>
        <mxCell id="g2f2oQm5Uw73h0GvxtcE-297" value="" style="rounded=0;orthogonalLoop=1;jettySize=auto;html=1;fillColor=#f8cecc;strokeColor=#b85450;dashed=1;endArrow=none;endFill=0;exitX=1;exitY=0.5;exitDx=0;exitDy=0;" edge="1" parent="1">
          <mxGeometry relative="1" as="geometry">
            <mxPoint x="1319.5" y="583.5" as="sourcePoint" />
            <mxPoint x="1400.5" y="583.5" as="targetPoint" />
          </mxGeometry>
        </mxCell>
        <mxCell id="g2f2oQm5Uw73h0GvxtcE-305" style="edgeStyle=orthogonalEdgeStyle;rounded=1;orthogonalLoop=1;jettySize=auto;html=1;exitX=0.5;exitY=0;exitDx=0;exitDy=0;entryX=0;entryY=0.5;entryDx=0;entryDy=0;dashed=1;curved=0;endArrow=none;endFill=0;fillColor=#a20025;strokeColor=#6F0000;" edge="1" parent="1" source="g2f2oQm5Uw73h0GvxtcE-299" target="g2f2oQm5Uw73h0GvxtcE-304">
          <mxGeometry relative="1" as="geometry" />
        </mxCell>
        <mxCell id="g2f2oQm5Uw73h0GvxtcE-306" value="HotFix" style="edgeLabel;html=1;align=center;verticalAlign=middle;resizable=0;points=[];fontStyle=1" vertex="1" connectable="0" parent="g2f2oQm5Uw73h0GvxtcE-305">
          <mxGeometry x="0.0756" y="-1" relative="1" as="geometry">
            <mxPoint as="offset" />
          </mxGeometry>
        </mxCell>
        <mxCell id="g2f2oQm5Uw73h0GvxtcE-299" value="" style="ellipse;whiteSpace=wrap;html=1;aspect=fixed;fillColor=#dae8fc;strokeColor=#6c8ebf;fontStyle=1;labelPosition=center;verticalLabelPosition=top;align=center;verticalAlign=bottom;fontColor=#0066CC;" vertex="1" parent="1">
          <mxGeometry x="1100" y="270" width="20" height="20" as="geometry" />
        </mxCell>
        <mxCell id="g2f2oQm5Uw73h0GvxtcE-301" value="" style="endArrow=none;dashed=1;html=1;fillColor=#dae8fc;strokeColor=#6c8ebf;entryX=0;entryY=0.5;entryDx=0;entryDy=0;" edge="1" parent="1">
          <mxGeometry width="50" height="50" relative="1" as="geometry">
            <mxPoint x="1120" y="279.5" as="sourcePoint" />
            <mxPoint x="1220" y="279.5" as="targetPoint" />
            <Array as="points" />
          </mxGeometry>
        </mxCell>
        <mxCell id="g2f2oQm5Uw73h0GvxtcE-313" style="edgeStyle=orthogonalEdgeStyle;rounded=1;orthogonalLoop=1;jettySize=auto;html=1;exitX=1;exitY=0.5;exitDx=0;exitDy=0;entryX=0.5;entryY=0;entryDx=0;entryDy=0;curved=0;dashed=1;fillColor=#f8cecc;strokeColor=#b85450;" edge="1" parent="1" source="g2f2oQm5Uw73h0GvxtcE-302" target="g2f2oQm5Uw73h0GvxtcE-309">
          <mxGeometry relative="1" as="geometry" />
        </mxCell>
        <mxCell id="g2f2oQm5Uw73h0GvxtcE-302" value="" style="ellipse;whiteSpace=wrap;html=1;aspect=fixed;fillColor=#dae8fc;strokeColor=#6c8ebf;fontStyle=1;labelPosition=center;verticalLabelPosition=top;align=center;verticalAlign=bottom;fontColor=#0066CC;" vertex="1" parent="1">
          <mxGeometry x="1220" y="270" width="20" height="20" as="geometry" />
        </mxCell>
        <mxCell id="g2f2oQm5Uw73h0GvxtcE-303" value="" style="endArrow=none;dashed=1;html=1;fillColor=#dae8fc;strokeColor=#6c8ebf;entryX=0;entryY=0.5;entryDx=0;entryDy=0;" edge="1" parent="1">
          <mxGeometry width="50" height="50" relative="1" as="geometry">
            <mxPoint x="1030" y="280" as="sourcePoint" />
            <mxPoint x="1100" y="279.5" as="targetPoint" />
            <Array as="points" />
          </mxGeometry>
        </mxCell>
        <mxCell id="g2f2oQm5Uw73h0GvxtcE-307" style="edgeStyle=orthogonalEdgeStyle;rounded=1;orthogonalLoop=1;jettySize=auto;html=1;exitX=1;exitY=0.5;exitDx=0;exitDy=0;entryX=0.5;entryY=0;entryDx=0;entryDy=0;curved=0;dashed=1;fillColor=#dae8fc;strokeColor=#6c8ebf;" edge="1" parent="1" source="g2f2oQm5Uw73h0GvxtcE-304" target="g2f2oQm5Uw73h0GvxtcE-302">
          <mxGeometry relative="1" as="geometry" />
        </mxCell>
        <mxCell id="g2f2oQm5Uw73h0GvxtcE-304" value="" style="ellipse;whiteSpace=wrap;html=1;aspect=fixed;fillColor=#a20025;strokeColor=#6F0000;fontStyle=1;labelPosition=center;verticalLabelPosition=top;align=center;verticalAlign=bottom;fontColor=#ffffff;" vertex="1" parent="1">
          <mxGeometry x="1170" y="230" width="20" height="20" as="geometry" />
        </mxCell>
        <mxCell id="g2f2oQm5Uw73h0GvxtcE-308" value="" style="ellipse;whiteSpace=wrap;html=1;aspect=fixed;fillColor=#f8cecc;strokeColor=#b85450;fontSize=14;fontStyle=1" vertex="1" parent="1">
          <mxGeometry x="1140" y="335" width="20" height="20" as="geometry" />
        </mxCell>
        <mxCell id="g2f2oQm5Uw73h0GvxtcE-320" style="edgeStyle=orthogonalEdgeStyle;rounded=1;orthogonalLoop=1;jettySize=auto;html=1;exitX=1;exitY=0.5;exitDx=0;exitDy=0;entryX=0.5;entryY=1;entryDx=0;entryDy=0;dashed=1;curved=0;fillColor=#dae8fc;strokeColor=#6c8ebf;" edge="1" parent="1" source="g2f2oQm5Uw73h0GvxtcE-309" target="g2f2oQm5Uw73h0GvxtcE-317">
          <mxGeometry relative="1" as="geometry" />
        </mxCell>
        <mxCell id="g2f2oQm5Uw73h0GvxtcE-321" value="release" style="edgeLabel;html=1;align=center;verticalAlign=middle;resizable=0;points=[];fontStyle=1;fontSize=13;" vertex="1" connectable="0" parent="g2f2oQm5Uw73h0GvxtcE-320">
          <mxGeometry x="-0.2366" y="-2" relative="1" as="geometry">
            <mxPoint as="offset" />
          </mxGeometry>
        </mxCell>
        <mxCell id="g2f2oQm5Uw73h0GvxtcE-309" value="" style="ellipse;whiteSpace=wrap;html=1;aspect=fixed;fillColor=#f8cecc;strokeColor=#b85450;fontSize=14;fontStyle=1" vertex="1" parent="1">
          <mxGeometry x="1297" y="335" width="20" height="20" as="geometry" />
        </mxCell>
        <mxCell id="g2f2oQm5Uw73h0GvxtcE-311" value="" style="rounded=0;orthogonalLoop=1;jettySize=auto;html=1;fillColor=#f8cecc;strokeColor=#b85450;dashed=1;endArrow=none;endFill=0;exitX=1;exitY=0.5;exitDx=0;exitDy=0;entryX=0;entryY=0.5;entryDx=0;entryDy=0;" edge="1" parent="1" target="g2f2oQm5Uw73h0GvxtcE-309">
          <mxGeometry relative="1" as="geometry">
            <mxPoint x="1159" y="344.5" as="sourcePoint" />
            <mxPoint x="1240" y="344.5" as="targetPoint" />
          </mxGeometry>
        </mxCell>
        <mxCell id="g2f2oQm5Uw73h0GvxtcE-314" value="" style="rounded=0;orthogonalLoop=1;jettySize=auto;html=1;fillColor=#f8cecc;strokeColor=#b85450;dashed=1;endArrow=none;endFill=0;entryX=0;entryY=0.5;entryDx=0;entryDy=0;" edge="1" parent="1">
          <mxGeometry relative="1" as="geometry">
            <mxPoint x="1030" y="345" as="sourcePoint" />
            <mxPoint x="1140" y="345" as="targetPoint" />
          </mxGeometry>
        </mxCell>
        <mxCell id="g2f2oQm5Uw73h0GvxtcE-315" value="Release" style="text;html=1;strokeColor=#b85450;fillColor=#f8cecc;align=center;verticalAlign=middle;whiteSpace=wrap;rounded=0;fontSize=14;fontStyle=1" vertex="1" parent="1">
          <mxGeometry x="1475" y="335" width="90" height="20" as="geometry" />
        </mxCell>
        <mxCell id="g2f2oQm5Uw73h0GvxtcE-316" value="Master" style="text;html=1;strokeColor=#6c8ebf;fillColor=#dae8fc;align=center;verticalAlign=middle;whiteSpace=wrap;rounded=0;fontStyle=1;fontSize=14;" vertex="1" parent="1">
          <mxGeometry x="1475" y="270" width="90" height="20" as="geometry" />
        </mxCell>
        <mxCell id="g2f2oQm5Uw73h0GvxtcE-317" value="" style="ellipse;whiteSpace=wrap;html=1;aspect=fixed;fillColor=#dae8fc;strokeColor=#6c8ebf;fontStyle=1;labelPosition=center;verticalLabelPosition=top;align=center;verticalAlign=bottom;fontColor=#0066CC;" vertex="1" parent="1">
          <mxGeometry x="1405" y="270" width="20" height="20" as="geometry" />
        </mxCell>
        <mxCell id="g2f2oQm5Uw73h0GvxtcE-319" value="" style="endArrow=none;dashed=1;html=1;fillColor=#dae8fc;strokeColor=#6c8ebf;entryX=0;entryY=0.5;entryDx=0;entryDy=0;exitX=1;exitY=0.5;exitDx=0;exitDy=0;" edge="1" parent="1" source="g2f2oQm5Uw73h0GvxtcE-302">
          <mxGeometry width="50" height="50" relative="1" as="geometry">
            <mxPoint x="1305" y="279.5" as="sourcePoint" />
            <mxPoint x="1405" y="279.5" as="targetPoint" />
            <Array as="points" />
          </mxGeometry>
        </mxCell>
        <mxCell id="g2f2oQm5Uw73h0GvxtcE-322" value="" style="endArrow=none;dashed=1;html=1;fillColor=#dae8fc;strokeColor=#6c8ebf;" edge="1" parent="1">
          <mxGeometry width="50" height="50" relative="1" as="geometry">
            <mxPoint x="1428" y="280" as="sourcePoint" />
            <mxPoint x="1458" y="280" as="targetPoint" />
            <Array as="points" />
          </mxGeometry>
        </mxCell>
      </root>
    </mxGraphModel>
  </diagram>
</mxfile>
